<?xml version="1.0" encoding="utf-8"?>
<!-- Generator: Adobe Illustrator 27.5.0, SVG Export Plug-In . SVG Version: 6.00 Build 0)  -->
<svg version="1.1" xmlns="http://www.w3.org/2000/svg" xmlns:xlink="http://www.w3.org/1999/xlink" x="0px" y="0px"
	 viewBox="0 0 500 500" style="enable-background:new 0 0 500 500;" xml:space="preserve">
<g id="Background_Simple">
	<g>
		<path style="fill:#92E3A9;" d="M465.016,182.66c-16.004-52.306-57.148-94.18-105.843-116.254
			c-46.452-21.057-105.179-31.461-149.194,0.947c-28.982,21.339-45.397,55.535-71.932,79.47
			c-13.189,11.897-27.629,15.763-43.32,22.879c-38.245,17.343-70.253,50.79-72.886,94.914
			c-4.402,73.772,54.076,124.8,119.328,141.534c86.229,22.115,150.684,22.115,209.912-1.769
			c30.761-12.404,62.064-28.098,84.24-53.787c33.536-38.848,42.804-94.028,35.177-143.922
			C469.242,198.467,467.4,190.451,465.016,182.66z"/>
		<path style="opacity:0.8;fill:#FFFFFF;" d="M465.016,182.66c-16.004-52.306-57.148-94.18-105.843-116.254
			c-46.452-21.057-105.179-31.461-149.194,0.947c-28.982,21.339-45.397,55.535-71.932,79.47
			c-13.189,11.897-27.629,15.763-43.32,22.879c-38.245,17.343-70.253,50.79-72.886,94.914
			c-4.402,73.772,54.076,124.8,119.328,141.534c86.229,22.115,150.684,22.115,209.912-1.769
			c30.761-12.404,62.064-28.098,84.24-53.787c33.536-38.848,42.804-94.028,35.177-143.922
			C469.242,198.467,467.4,190.451,465.016,182.66z"/>
	</g>
</g>
<g id="Page">
	<g>
		<g>
			
				<rect x="72" y="39" style="fill:#FFFFFF;stroke:#263238;stroke-linecap:round;stroke-linejoin:round;stroke-miterlimit:10;" width="343" height="208"/>
			<g>
				
					<rect x="83.667" y="66.333" style="fill:none;stroke:#263238;stroke-linecap:round;stroke-linejoin:round;stroke-miterlimit:10;" width="186" height="16.25"/>
				
					<rect x="83.667" y="91.787" style="fill:none;stroke:#263238;stroke-linecap:round;stroke-linejoin:round;stroke-miterlimit:10;" width="186" height="93.88"/>
			</g>
			<g>
				
					<rect x="280.207" y="159.661" style="fill:none;stroke:#263238;stroke-linecap:round;stroke-linejoin:round;stroke-miterlimit:10;" width="125.971" height="74.777"/>
				
					<line style="fill:none;stroke:#263238;stroke-linecap:round;stroke-linejoin:round;stroke-miterlimit:10;" x1="280.207" y1="234.439" x2="406.178" y2="159.661"/>
				
					<line style="fill:none;stroke:#263238;stroke-linecap:round;stroke-linejoin:round;stroke-miterlimit:10;" x1="406.178" y1="234.439" x2="280.207" y2="159.661"/>
			</g>
			<g>
				
					<line style="fill:none;stroke:#263238;stroke-linecap:round;stroke-linejoin:round;stroke-miterlimit:10;" x1="237.067" y1="199.926" x2="267.553" y2="199.926"/>
				
					<line style="fill:none;stroke:#263238;stroke-linecap:round;stroke-linejoin:round;stroke-miterlimit:10;" x1="182.997" y1="199.926" x2="230.739" y2="199.926"/>
				
					<line style="fill:none;stroke:#263238;stroke-linecap:round;stroke-linejoin:round;stroke-miterlimit:10;" x1="109.37" y1="199.926" x2="173.794" y2="199.926"/>
				
					<line style="fill:none;stroke:#263238;stroke-linecap:round;stroke-linejoin:round;stroke-miterlimit:10;" x1="84.636" y1="199.926" x2="101.893" y2="199.926"/>
				
					<line style="fill:none;stroke:#263238;stroke-linecap:round;stroke-linejoin:round;stroke-miterlimit:10;" x1="129.503" y1="208.554" x2="267.553" y2="208.554"/>
				
					<line style="fill:none;stroke:#263238;stroke-linecap:round;stroke-linejoin:round;stroke-miterlimit:10;" x1="84.636" y1="208.554" x2="122.6" y2="208.554"/>
				
					<line style="fill:none;stroke:#263238;stroke-linecap:round;stroke-linejoin:round;stroke-miterlimit:10;" x1="202.554" y1="217.182" x2="267.553" y2="217.182"/>
				
					<line style="fill:none;stroke:#263238;stroke-linecap:round;stroke-linejoin:round;stroke-miterlimit:10;" x1="138.131" y1="217.182" x2="193.351" y2="217.182"/>
				
					<line style="fill:none;stroke:#263238;stroke-linecap:round;stroke-linejoin:round;stroke-miterlimit:10;" x1="84.636" y1="217.182" x2="131.804" y2="217.182"/>
				
					<line style="fill:none;stroke:#263238;stroke-linecap:round;stroke-linejoin:round;stroke-miterlimit:10;" x1="192.201" y1="225.811" x2="267.553" y2="225.811"/>
				
					<line style="fill:none;stroke:#263238;stroke-linecap:round;stroke-linejoin:round;stroke-miterlimit:10;" x1="130.653" y1="225.811" x2="184.723" y2="225.811"/>
				
					<line style="fill:none;stroke:#263238;stroke-linecap:round;stroke-linejoin:round;stroke-miterlimit:10;" x1="84.636" y1="225.811" x2="124.326" y2="225.811"/>
				
					<line style="fill:none;stroke:#263238;stroke-linecap:round;stroke-linejoin:round;stroke-miterlimit:10;" x1="234.191" y1="234.439" x2="267.553" y2="234.439"/>
				
					<line style="fill:none;stroke:#263238;stroke-linecap:round;stroke-linejoin:round;stroke-miterlimit:10;" x1="155.387" y1="234.439" x2="227.863" y2="234.439"/>
				
					<line style="fill:none;stroke:#263238;stroke-linecap:round;stroke-linejoin:round;stroke-miterlimit:10;" x1="122.6" y1="234.439" x2="149.06" y2="234.439"/>
				
					<line style="fill:none;stroke:#263238;stroke-linecap:round;stroke-linejoin:round;stroke-miterlimit:10;" x1="96.716" y1="234.439" x2="112.246" y2="234.439"/>
				
					<line style="fill:none;stroke:#263238;stroke-linecap:round;stroke-linejoin:round;stroke-miterlimit:10;" x1="84.636" y1="234.439" x2="96.716" y2="234.439"/>
			</g>
			
				<rect x="72" y="39" style="fill:#92E3A9;stroke:#263238;stroke-linecap:round;stroke-linejoin:round;stroke-miterlimit:10;" width="343" height="15"/>
			
				<rect x="121.269" y="43.5" style="fill:#FFFFFF;stroke:#263238;stroke-linecap:round;stroke-linejoin:round;stroke-miterlimit:10;" width="286" height="6.046"/>
			
				<rect x="77.279" y="43.5" style="fill:#FFFFFF;stroke:#263238;stroke-linecap:round;stroke-linejoin:round;stroke-miterlimit:10;" width="38.028" height="6.046"/>
			<g>
				<g>
					
						<rect x="304.701" y="74.962" style="fill:#FFFFFF;stroke:#263238;stroke-linecap:round;stroke-linejoin:round;stroke-miterlimit:10;" width="130" height="74"/>
					
						<rect x="304.701" y="134.962" style="fill:#FFFFFF;stroke:#263238;stroke-linecap:round;stroke-linejoin:round;stroke-miterlimit:10;" width="130" height="14"/>
					<polygon style="fill:#92E3A9;stroke:#263238;stroke-linecap:round;stroke-linejoin:round;stroke-miterlimit:10;" points="
						386.808,106.259 352.595,86.507 352.595,126.012 					"/>
				</g>
				
					<rect x="301.49" y="71.079" style="fill:#FFFFFF;stroke:#263238;stroke-linecap:round;stroke-linejoin:round;stroke-miterlimit:10;" width="7.478" height="7.478"/>
				
					<rect x="430.624" y="71.079" style="fill:#FFFFFF;stroke:#263238;stroke-linecap:round;stroke-linejoin:round;stroke-miterlimit:10;" width="7.478" height="7.478"/>
				
					<rect x="301.49" y="143.843" style="fill:#FFFFFF;stroke:#263238;stroke-linecap:round;stroke-linejoin:round;stroke-miterlimit:10;" width="7.478" height="7.478"/>
				
					<rect x="430.624" y="143.843" style="fill:#FFFFFF;stroke:#263238;stroke-linecap:round;stroke-linejoin:round;stroke-miterlimit:10;" width="7.478" height="7.478"/>
			</g>
			<g>
				<path style="fill:#263238;" d="M149.336,135.836v13.021h-3.224v-28.935h3.224v13.021h7.11v-13.021h3.224v28.935h-3.224v-13.021
					H149.336z"/>
				<path style="fill:#263238;" d="M167.153,148.857v-26.001h-5.332v-2.935h13.848v2.935h-5.333v26.001H167.153z"/>
				<path style="fill:#263238;" d="M188.524,148.815h-3.101l-4.795-23.024v23.065h-2.811v-28.935h4.505l4.754,23.106l4.588-23.106
					h4.506v28.935h-3.059v-23.272L188.524,148.815z"/>
				<path style="fill:#263238;" d="M199.48,148.857v-28.935h3.224v26h8.268v2.935H199.48z"/>
			</g>
		</g>
		<path style="fill:#263238;" d="M417.201,145.502l6.905,30.96c0.262,0.975,1.597,1.097,2.03,0.185l4.48-9.43
			c0.189-0.398,0.6-0.643,1.041-0.618l10.424,0.574c1.008,0.055,1.54-1.175,0.809-1.871l-23.891-20.867
			C418.204,143.677,416.917,144.442,417.201,145.502z"/>
		<g>
			
				<rect x="436.333" y="173" style="fill:#FFFFFF;stroke:#263238;stroke-width:0.75;stroke-linecap:round;stroke-linejoin:round;stroke-miterlimit:10;" width="9.333" height="9.333"/>
			<rect x="435.583" y="172.263" style="fill:#263238;" width="1.402" height="1.402"/>
			<rect x="440.319" y="172.263" style="fill:#263238;" width="1.402" height="1.402"/>
			<rect x="444.864" y="172.263" style="fill:#263238;" width="1.402" height="1.402"/>
			<rect x="435.583" y="176.978" style="fill:#263238;" width="1.402" height="1.402"/>
			<rect x="440.319" y="176.978" style="fill:#263238;" width="1.402" height="1.402"/>
			<rect x="444.864" y="176.978" style="fill:#263238;" width="1.402" height="1.402"/>
			<rect x="435.583" y="181.523" style="fill:#263238;" width="1.402" height="1.402"/>
			<rect x="440.319" y="181.523" style="fill:#263238;" width="1.402" height="1.402"/>
			<rect x="444.864" y="181.523" style="fill:#263238;" width="1.402" height="1.402"/>
		</g>
	</g>
</g>
<g id="Coffee">
	<g>
		<polygon style="fill:#92E3A9;stroke:#263238;stroke-linecap:round;stroke-linejoin:round;stroke-miterlimit:10;" points="
			166.606,319.119 149.008,319.119 146.369,286.205 169.246,286.205 		"/>
		
			<rect x="144.772" y="282.946" style="fill:#FFFFFF;stroke:#263238;stroke-linecap:round;stroke-linejoin:round;stroke-miterlimit:10;" width="25.419" height="7.495"/>
		<polygon style="fill:#FFFFFF;stroke:#263238;stroke-linecap:round;stroke-linejoin:round;stroke-miterlimit:10;" points="
			167.338,309.994 168.305,297.936 147.31,297.936 148.277,309.994 		"/>
	</g>
</g>
<g id="Character">
	<g>
		<polygon style="fill:#FFFFFF;stroke:#263238;stroke-linecap:round;stroke-linejoin:round;stroke-miterlimit:10;" points="
			191.471,316.839 188.512,317.42 179.941,275.054 182.9,274.473 		"/>
		
			<rect x="188.329" y="316.003" style="fill:#FFFFFF;stroke:#263238;stroke-linecap:round;stroke-linejoin:round;stroke-miterlimit:10;" width="56.297" height="2.011"/>
	</g>
	<g>
		
			<rect x="260.208" y="421.546" style="fill:#FFFFFF;stroke:#263238;stroke-linecap:round;stroke-linejoin:round;stroke-miterlimit:10;" width="86.987" height="4.245"/>
		<path style="fill:#263238;stroke:#263238;stroke-linecap:round;stroke-linejoin:round;stroke-miterlimit:10;" d="M360.333,290.595
			c0,0-8.24,65.314-10.526,85.56c-2.286,20.246,6.679,83.776,6.679,83.776h-5.225l-10.271-72.02h-76.736l-4.914,70.714h-3.919
			l6.547-82.143v-8.932c0-1.92,1.556-3.477,3.477-3.477h73.585l11.506-80.662c0,0,1.306-7.511,7.837-5.225
			C364.905,280.471,360.333,290.595,360.333,290.595z"/>
		<path style="fill:#FFFFFF;stroke:#263238;stroke-linecap:round;stroke-linejoin:round;stroke-miterlimit:10;" d="M358.374,278.185
			c-0.178-0.062-0.35-0.114-0.521-0.162c0.496,0.964,0.795,2.738,0.194,6.04c-1.306,7.184-15.098,92.744-15.098,92.744h-81.038
			l-6.489,82.826h3.919l8.54-71.724h73.11l10.271,72.02h5.225c0,0-8.965-63.53-6.679-83.776
			c2.286-20.246,12.063-84.073,12.063-84.073S364.905,280.471,358.374,278.185z"/>
	</g>
	<g>
		<path style="fill:#FFFFFF;stroke:#263238;stroke-linecap:round;stroke-linejoin:round;stroke-miterlimit:10;" d="M280.1,296.295
			l-40.873,2.314l-18.252,10.54l-3.599,6.169l2.828,0.514l6.427-2.828c0,0,7.198-1.285,9.254-2.056
			c2.057-0.771,7.712-6.941,7.712-6.941l38.045,6.169L280.1,296.295z"/>
		<g>
			<path style="fill:#FFFFFF;stroke:#263238;stroke-linecap:round;stroke-linejoin:round;stroke-miterlimit:10;" d="
				M221.146,422.599c0,0-7.198,12.596-8.226,12.596c-1.028,0-9.371,1.857-16.054-1.485c-6.684-3.342-11.568-5.913-13.624-2.828
				c-2.057,3.085-2.571,4.627-2.571,4.627s6.169,8.74,11.825,11.825c5.655,3.085,8.085,1.485,13.998,4.827s6.427,5.912,11.311,4.884
				c4.884-1.028,7.712-16.709,8.997-18.509c1.285-1.799,6.17-11.825,6.17-11.825L221.146,422.599z"/>
			<path style="fill:#263238;stroke:#263238;stroke-linecap:round;stroke-linejoin:round;stroke-miterlimit:10;" d="
				M214.157,433.902c-0.584,0.793-1.033,1.293-1.236,1.293c-1.028,0-9.371,1.857-16.055-1.485
				c-6.684-3.342-11.568-5.913-13.624-2.828c-2.057,3.085-2.571,4.627-2.571,4.627s6.169,8.74,11.825,11.825
				s8.085,1.485,13.998,4.827c5.913,3.342,6.427,5.912,11.311,4.884c4.326-0.911,7.037-13.307,8.494-17.382
				C221.923,438.524,217.158,435.81,214.157,433.902z"/>
			<path style="fill:#FFFFFF;stroke:#263238;stroke-linecap:round;stroke-linejoin:round;stroke-miterlimit:10;" d="
				M217.805,457.045c0.145-0.03,0.287-0.076,0.428-0.131c0.046-0.018,0.092-0.043,0.137-0.064c0.094-0.043,0.189-0.087,0.281-0.14
				c0.053-0.03,0.104-0.066,0.157-0.099c0.085-0.054,0.169-0.111,0.252-0.174c0.053-0.04,0.106-0.084,0.159-0.127
				c0.081-0.067,0.162-0.137,0.242-0.212c0.051-0.048,0.102-0.097,0.153-0.147c0.081-0.082,0.162-0.168,0.242-0.257
				c0.047-0.053,0.095-0.105,0.142-0.16c0.084-0.1,0.168-0.205,0.251-0.312c0.04-0.052,0.081-0.102,0.121-0.156
				c0.099-0.133,0.196-0.273,0.292-0.416c0.023-0.034,0.046-0.065,0.068-0.099c0.199-0.302,0.391-0.628,0.58-0.968
				c-5.014,0.04-8.4-3.156-13.788-5.021c-6.684-2.314-7.057-0.457-11.941-3.799c-4.884-3.342-5.398-5.398-5.398-5.398l4.327-6.832
				c-5.472-2.707-9.461-4.361-11.267-1.651c-2.057,3.085-2.571,4.627-2.571,4.627s6.169,8.74,11.825,11.825
				s8.085,1.485,13.998,4.827C212.406,455.503,212.92,458.074,217.805,457.045z"/>
		</g>
		<path style="fill:#92E3A9;stroke:#263238;stroke-linecap:round;stroke-linejoin:round;stroke-miterlimit:10;" d="M228.858,358.333
			l-22.879,57.068l27.249,15.424c0,0,29.048-65.808,29.305-67.093c0.257-1.285,5.398-2.571,5.398-2.571l20.822,2.828
			c0,0-31.362-13.881-40.616-15.938C238.884,345.994,232.714,347.537,228.858,358.333z"/>
		<g>
			<g>
				<path style="fill:#FFFFFF;stroke:#263238;stroke-linecap:round;stroke-linejoin:round;stroke-miterlimit:10;" d="
					M252.594,402.719l12.853,12.082c0,0-4.37,10.797-9.511,17.737c-5.141,6.941-5.655,11.054-3.342,12.596
					c2.313,1.542,6.941,1.285,10.025-0.771s20.565-19.28,22.621-22.365c2.057-3.085-0.257-6.169-1.028-6.684
					c-0.771-0.514-17.737-20.822-17.737-20.822L252.594,402.719z"/>
				<path style="fill:#263238;stroke:#263238;stroke-linecap:round;stroke-linejoin:round;stroke-miterlimit:10;" d="
					M285.241,421.999c2.057-3.085-0.257-6.169-1.028-6.684c-0.365-0.243-4.357-4.919-8.461-9.778
					c-3.759,4.557-10.548,7.096-12.055,7.618l1.75,1.645c0,0-4.37,10.797-9.511,17.737c-5.141,6.941-5.655,11.054-3.342,12.596
					c2.314,1.542,6.941,1.285,10.025-0.771C265.704,442.307,283.185,425.083,285.241,421.999z"/>
				<path style="fill:#FFFFFF;stroke:#263238;stroke-linecap:round;stroke-linejoin:round;stroke-miterlimit:10;" d="
					M284.542,415.603c-0.145,1.548-0.631,3.303-1.872,4.853c-3.085,3.856-20.308,19.794-20.308,19.794l-7.953-5.523
					c-3.685,5.622-3.874,9.035-1.816,10.407c2.314,1.542,6.941,1.285,10.025-0.771c3.085-2.056,20.565-19.28,22.621-22.365
					C287.055,419.278,285.471,416.561,284.542,415.603z"/>
				<path style="fill:#FFFFFF;" d="M277.272,414.287c0,1.42-1.208,2.571-2.699,2.571s-2.699-1.151-2.699-2.571
					c0-1.42,1.208-2.571,2.699-2.571S277.272,412.867,277.272,414.287z"/>
			</g>
			<path style="fill:#92E3A9;stroke:#263238;stroke-linecap:round;stroke-linejoin:round;stroke-miterlimit:10;" d="
				M285.498,321.487l-1.285,4.37c0,0-38.817,0.514-55.783,5.141c-16.966,4.627-21.593,7.198-20.308,16.709
				c1.285,9.511,27.506,64.266,27.506,64.266s6.941-1.799,15.424-5.655c8.483-3.856,16.709-10.283,16.709-10.283l-19.537-37.274
				c0,0,22.364,4.627,47.299,6.941c24.935,2.314,35.475-0.257,39.588-7.712s-2.828-37.274-2.828-37.274l-46.528-1.542
				L285.498,321.487z"/>
			<path style="fill:none;stroke:#263238;stroke-linecap:round;stroke-linejoin:round;stroke-miterlimit:10;" d="M230.978,346.454
				c-0.969-0.989-1.763-1.955-2.29-2.86"/>
			<path style="fill:none;stroke:#263238;stroke-linecap:round;stroke-linejoin:round;stroke-miterlimit:10;" d="M248.224,358.761
				c0,0-8.821-4.98-14.82-10.07"/>
			<path style="fill:none;stroke:#263238;stroke-linecap:round;stroke-linejoin:round;stroke-miterlimit:10;" d="M251.1,380.23
				c0.678,0.354,1.365,0.703,2.061,1.047"/>
			<path style="fill:none;stroke:#263238;stroke-linecap:round;stroke-linejoin:round;stroke-miterlimit:10;" d="M215.108,349.922
				c0,0,11.362,16.268,32.421,28.351"/>
			<path style="fill:none;stroke:#263238;stroke-linecap:round;stroke-linejoin:round;stroke-miterlimit:10;" d="M322.813,338.529
				c0.989,0.782,1.923,1.613,2.788,2.495"/>
			<path style="fill:none;stroke:#263238;stroke-linecap:round;stroke-linejoin:round;stroke-miterlimit:10;" d="M286.784,326.371
				c0,0,18.834,1.463,32.135,9.478"/>
			<path style="fill:none;stroke:#263238;stroke-linecap:round;stroke-linejoin:round;stroke-miterlimit:10;" d="M312.49,330.741
				c0,0,12.339,0.257,17.223,5.398"/>
		</g>
		<path style="fill:#263238;stroke:#263238;stroke-linecap:round;stroke-linejoin:round;stroke-miterlimit:10;" d="M289.097,244.368
			c0,0-8.74,25.963-10.026,33.932c-1.285,7.969-0.514,42.672-0.514,42.672s20.565,6.169,32.133,4.884
			c11.568-1.285,25.963-3.599,25.963-3.599s-2.571-46.014-4.884-61.952s-7.712-25.192-12.853-29.048
			c-5.141-3.856-10.797-6.684-10.797-6.684L289.097,244.368z"/>
		<g>
			<g>
				<path style="fill:#FFFFFF;stroke:#263238;stroke-linecap:round;stroke-linejoin:round;stroke-miterlimit:10;" d="
					M243.854,204.266c0,0,0.771,5.141,3.342,9.254c2.571,4.113,6.169,5.912,5.141,10.025c-1.028,4.113-1.028,6.941,2.057,7.198
					c3.085,0.257,3.085,0.257,3.085,0.257s6.17,10.54,10.797,10.54c4.627,0,17.737-11.825,17.737-11.825s-6.941-32.647-6.941-33.675
					c0-1.028-36.76,3.856-36.76,3.856L243.854,204.266z"/>
				<path style="fill:#263238;" d="M259.151,217.482c0.49,1.025,0.317,2.128-0.388,2.465c-0.704,0.337-1.673-0.22-2.163-1.245
					c-0.49-1.024-0.317-2.128,0.388-2.465C257.693,215.9,258.661,216.457,259.151,217.482z"/>
				<path style="fill:none;stroke:#263238;stroke-linecap:round;stroke-linejoin:round;stroke-miterlimit:10;" d="M252.851,214.549
					c0,0-0.257-3.599,5.141-2.828"/>
				<path style="fill:none;stroke:#263238;stroke-linecap:round;stroke-linejoin:round;stroke-miterlimit:10;" d="M260.365,231.817
					c0.159,0.573,6.273,0.237,5.34-5.186"/>
			</g>
			<g>
				<path style="fill:#92E3A9;stroke:#263238;stroke-linecap:round;stroke-linejoin:round;stroke-miterlimit:10;" d="
					M296.038,192.184c-0.85-10.41-13.806-6.424-19.877-3.275c-0.107-0.203-0.174-0.324-0.174-0.324l-24.421,6.941
					c0,0-0.771,3.342,2.314,5.141c0,0,7.531,6.041,17.488,6.857c1.821,10.872,4.362,27.139,4.362,33.245
					c0,9.511-3.599,13.11-3.599,13.11s16.452-5.141,25.963-14.138c9.511-8.997,14.396-17.48,14.396-17.48
					S297.066,204.781,296.038,192.184z"/>
				
					<line style="fill:none;stroke:#263238;stroke-linecap:round;stroke-linejoin:round;stroke-miterlimit:10;" x1="271.368" y1="207.525" x2="270.644" y2="204.119"/>
				<path style="fill:none;stroke:#263238;stroke-linecap:round;stroke-linejoin:round;stroke-miterlimit:10;" d="M283.572,231.182
					c0.206,1.173,0.375,2.254,0.493,3.205"/>
				<path style="fill:none;stroke:#263238;stroke-linecap:round;stroke-linejoin:round;stroke-miterlimit:10;" d="M277.212,204.119
					c0,0,3.623,13.407,5.675,23.48"/>
				
					<line style="fill:none;stroke:#263238;stroke-linecap:round;stroke-linejoin:round;stroke-miterlimit:10;" x1="289.348" y1="207.491" x2="294.344" y2="220.68"/>
				
					<line style="fill:none;stroke:#263238;stroke-linecap:round;stroke-linejoin:round;stroke-miterlimit:10;" x1="287.206" y1="201.835" x2="288.497" y2="205.243"/>
				
					<line style="fill:none;stroke:#263238;stroke-linecap:round;stroke-linejoin:round;stroke-miterlimit:10;" x1="293.488" y1="202.12" x2="295.772" y2="207.831"/>
			</g>
			<g>
				<path style="fill:#757575;stroke:#263238;stroke-linecap:round;stroke-linejoin:round;stroke-miterlimit:10;" d="
					M241.331,203.867c0,0-17.202,9.175-11.468,9.175c5.734,0,34.405-11.851,35.552-11.851
					C266.561,201.192,246.3,203.103,241.331,203.867z"/>
				<path style="fill:#757575;stroke:#263238;stroke-linecap:round;stroke-linejoin:round;stroke-miterlimit:10;" d="
					M241.331,203.867c0,0-10.29,3.259-5.703-7.827c4.587-11.086,35.844-27.249,48.842-27.249c12.997,0,22.612,19.402,20.701,25.519
					c-1.911,6.116-6.116,6.881-8.028,6.881C295.232,201.192,241.331,203.867,241.331,203.867z"/>
				<path style="fill:none;stroke:#263238;stroke-linecap:round;stroke-linejoin:round;stroke-miterlimit:10;" d="M246.3,200.427
					c0,0,18.732,0.382,34.787-1.911c16.056-2.294,22.554-4.587,22.554-4.587"/>
				
					<line style="fill:none;stroke:#263238;stroke-linecap:round;stroke-linejoin:round;stroke-miterlimit:10;" x1="301.348" y1="198.898" x2="276.118" y2="199.28"/>
			</g>
		</g>
		<g>
			<g>
				<g>
					<path style="fill:#FFFFFF;stroke:#263238;stroke-linecap:round;stroke-linejoin:round;stroke-miterlimit:10;" d="
						M285.498,299.894l-3.342,3.085c0,0-41.644-5.398-44.472-4.627c-2.828,0.771-12.853,3.599-12.853,3.599l-7.969,0.514
						l-6.426,10.797h2.056l4.627-6.427h2.828l-4.884,5.655l-2.057,3.085l7.198,0.257l1.045-0.888l4.097-3.482l-1.285,3.856h1.542
						l3.599-6.169l4.884-2.571l5.141-3.599c0,0,52.441,18.251,53.726,19.023c1.285,0.771,4.113,2.828,6.427,0.771
						c2.314-2.056,8.483-19.28,8.483-19.28L285.498,299.894z"/>
					<path style="fill:none;stroke:#263238;stroke-linecap:round;stroke-linejoin:round;stroke-miterlimit:10;" d="M216.218,315.219
						c0,0,3.075-2.12,7.047-7.305c0,0,0.35-2.71,2.71-3.147"/>
					<polyline style="fill:none;stroke:#263238;stroke-linecap:round;stroke-linejoin:round;stroke-miterlimit:10;" points="
						225.346,311.462 226.507,306.987 227.793,305.958 					"/>
					<path style="fill:none;stroke:#263238;stroke-linecap:round;stroke-linejoin:round;stroke-miterlimit:10;" d="M219.947,306.835
						c0,0,1.569-2.417,2.443-2.941c0.874-0.525,1.399-0.787,1.399-0.787"/>
				</g>
				<path style="fill:#757575;stroke:#263238;stroke-linecap:round;stroke-linejoin:round;stroke-miterlimit:10;" d="
					M263.502,311.462c13.918,4.882,28.774,10.134,29.451,10.539c1.285,0.771,4.113,2.828,6.427,0.771
					c2.314-2.056,8.483-19.28,8.483-19.28l-22.364-3.599l-3.342,3.085c0,0-7.654-0.992-16.621-2.065L263.502,311.462z"/>
			</g>
			<g>
				<path style="fill:#263238;stroke:#263238;stroke-linecap:round;stroke-linejoin:round;stroke-miterlimit:10;" d="
					M292.953,260.82l-11.054,37.274c0,0,1.028,5.141,11.311,7.969s17.48,2.571,17.48,2.571l8.226-46.271"/>
				
					<line style="fill:none;stroke:#707070;stroke-linecap:round;stroke-linejoin:round;stroke-miterlimit:10;" x1="292.259" y1="264.176" x2="282.229" y2="295.267"/>
				
					<line style="fill:none;stroke:#707070;stroke-linecap:round;stroke-linejoin:round;stroke-miterlimit:10;" x1="316.75" y1="274.143" x2="311.816" y2="305.799"/>
				
					<line style="fill:none;stroke:#707070;stroke-linecap:round;stroke-linejoin:round;stroke-miterlimit:10;" x1="317.834" y1="267.185" x2="317.293" y2="270.658"/>
			</g>
		</g>
	</g>
	<g>
		
			<rect x="191.5" y="320.5" style="fill:#263238;stroke:#263238;stroke-linecap:round;stroke-linejoin:round;stroke-miterlimit:10;" width="9" height="133.805"/>
		
			<rect x="127.886" y="318.139" style="fill:#757575;stroke:#263238;stroke-linecap:round;stroke-linejoin:round;stroke-miterlimit:10;" width="133.957" height="5.529"/>
		<path style="fill:#757575;stroke:#263238;stroke-linecap:round;stroke-linejoin:round;stroke-miterlimit:10;" d="M244.231,459.772
			h-96.443l0,0c0-3.056,2.477-5.534,5.534-5.534h85.376C241.753,454.238,244.231,456.716,244.231,459.772L244.231,459.772z"/>
	</g>
</g>
<g id="Floor">
	<g>
		
			<line style="fill:none;stroke:#263238;stroke-linecap:round;stroke-linejoin:round;stroke-miterlimit:10;" x1="452.333" y1="459.931" x2="464.333" y2="459.931"/>
		
			<line style="fill:none;stroke:#263238;stroke-linecap:round;stroke-linejoin:round;stroke-miterlimit:10;" x1="432.333" y1="459.931" x2="445" y2="459.931"/>
		
			<line style="fill:none;stroke:#263238;stroke-linecap:round;stroke-linejoin:round;stroke-miterlimit:10;" x1="127.667" y1="459.931" x2="425" y2="459.931"/>
		
			<line style="fill:none;stroke:#263238;stroke-linecap:round;stroke-linejoin:round;stroke-miterlimit:10;" x1="45.474" y1="459.931" x2="118.333" y2="459.931"/>
	</g>
</g>
</svg>
